# File created by Blade
# Date/Time:  Tue Jan 27 18:01:49 2015
# Frame Rate: 120.000 fps
#------------------------------------------------------
:FULLY-SPECIFIED
:DEGREES
1498
root -1.551031 31.949816 -5.755806 9.355332 24.582728 5.395993
Spine -7.019384 -5.080587 -3.667418
Head 5.457012 -16.428628 -6.561559
LeftShoulder -11.435389 15.071075 6.478170
LeftArm 26.095948 41.997998 -70.986101
LeftForeArm -2.981739 0.000000 12.759750
LeftHand -11.111318 0.000000 -6.752251
LeftHandThumb1 -26.253704 0.000000 33.147579
RightShoulder -12.701893 35.996176 -51.103144
RightArm 115.802920 55.185228 137.522095
RightForeArm 40.312368 -0.000000 153.781764
RightHand 9.546259 -0.000000 11.390555
RightHandThumb1 -24.326973 -0.000000 -32.862282
LeftUpLeg -4.552258 -10.757086 -0.110037
LeftLeg 0.118306 -0.000000 -0.000000
LeftFoot -12.243153 10.532916 -24.090961
LeftToeBase 8.545180 -0.000000 -0.000000
RightUpLeg 3.196739 -13.991443 -2.849082
RightLeg -4.274739 -0.000000 0.000000
RightFoot -17.464488 -20.693771 11.852355
RightToeBase 5.235087 -0.000000 -0.000000
1499
root -1.555190 31.943384 -5.756442 9.385278 24.568609 5.363526
Spine -7.076282 -5.075786 -3.761063
Head 5.640766 -16.500083 -6.220136
LeftShoulder -11.394219 15.078216 6.668562
LeftArm 26.061038 41.993520 -71.169651
LeftForeArm -2.936762 -0.000000 12.676389
LeftHand -11.064364 -0.000000 -6.755440
LeftHandThumb1 -26.253704 0.000000 33.147579
RightShoulder -12.202072 33.757631 -49.956693
RightArm 119.893888 52.754519 140.446274
RightForeArm 41.696584 0.000000 154.507104
RightHand 10.483259 -0.000000 13.141662
RightHandThumb1 -24.326973 -0.000000 -32.862282
LeftUpLeg -4.598656 -10.757370 -0.066485
LeftLeg 0.123268 -0.000000 -0.000000
LeftFoot -12.316253 10.524020 -24.086669
LeftToeBase 8.532729 -0.000000 -0.000000
RightUpLeg 3.131860 -13.947049 -2.802258
RightLeg -4.244400 -0.000000 0.000000
RightFoot -17.530015 -20.714863 11.855974
RightToeBase 5.239770 -0.000000 -0.000000
1500
root -1.555562 31.941585 -5.751704 9.355654 24.562671 5.354959
Spine -7.074594 -5.040582 -3.794666
Head 5.823034 -16.584601 -6.159095
LeftShoulder -11.325550 15.072406 6.710477
LeftArm 26.063588 42.049112 -71.145916
LeftForeArm -2.993047 -0.000000 12.657912
LeftHand -11.128169 0.000000 -6.907739
LeftHandThumb1 -26.253704 0.000000 33.147579
RightShoulder -12.241681 33.992974 -49.672187
RightArm 120.344807 52.290061 140.506429
RightForeArm 42.386950 -0.000000 154.803166
RightHand 10.546212 -0.000000 14.427904
RightHandThumb1 -24.326973 -0.000000 -32.862282
LeftUpLeg -4.560856 -10.752304 -0.059083
LeftLeg 0.120015 -0.000000 -0.000000
LeftFoot -12.341284 10.510519 -24.083249
LeftToeBase 8.592188 -0.000000 -0.000000
RightUpLeg 3.165678 -13.921975 -2.798275
RightLeg -4.244861 -0.000000 0.000000
RightFoot -17.548839 -20.734508 11.853110
RightToeBase 5.242691 -0.000000 -0.000000
1501
root -1.558437 31.940801 -5.748602 9.330525 24.531583 5.329291
Spine -7.092698 -5.018417 -3.814318
Head 5.998068 -16.637349 -6.097325
LeftShoulder -11.293441 15.096511 6.745733
LeftArm 26.097595 42.069800 -71.104123
LeftForeArm -3.086456 -0.000000 12.653235
LeftHand -11.035486 -0.000000 -6.568061
LeftHandThumb1 -26.253704 0.000000 33.147579
RightShoulder -12.284616 34.095795 -49.520840
RightArm 120.603567 51.862279 140.833774
RightForeArm 42.746612 -0.000000 154.695735
RightHand 9.841985 0.000000 15.286347
RightHandThumb1 -24.326973 -0.000000 -32.862282
LeftUpLeg -4.537236 -10.727571 -0.040190
LeftLeg 0.113688 -0.000000 -0.000000
LeftFoot -12.353257 10.524554 -24.083576
LeftToeBase 8.563152 -0.000000 -0.000000
RightUpLeg 3.167266 -13.876547 -2.776016
RightLeg -4.217380 -0.000000 0.000000
RightFoot -17.575829 -20.735116 11.878974
RightToeBase 5.266991 -0.000000 -0.000000
1502
root -1.561539 31.941369 -5.745980 9.307512 24.505430 5.312291
Spine -7.113049 -5.052815 -3.842629
Head 6.169420 -16.629900 -6.032166
LeftShoulder -11.298740 15.106421 6.773873
LeftArm 26.076300 42.050024 -71.106467
LeftForeArm -3.058746 -0.000000 12.665904
LeftHand -11.053468 -0.000000 -6.607905
LeftHandThumb1 -26.253704 0.000000 33.147579
RightShoulder -12.233214 33.782006 -49.479507
RightArm 121.251062 51.391159 141.938503
RightForeArm 42.579114 -0.000000 154.252528
RightHand 9.700781 -0.000000 15.335789
RightHandThumb1 -24.326973 -0.000000 -32.862282
LeftUpLeg -4.518994 -10.708796 -0.024451
LeftLeg 0.121712 -0.000000 -0.000000
LeftFoot -12.368947 10.526664 -24.094109
LeftToeBase 8.557525 -0.000000 -0.000000
RightUpLeg 3.174133 -13.833672 -2.759266
RightLeg -4.207046 -0.000000 0.000000
RightFoot -17.559811 -20.760521 11.844444
RightToeBase 5.236780 -0.000000 -0.000000
1503
root -1.563387 31.945423 -5.743302 9.261568 24.466783 5.297533
Spine -7.104427 -5.048474 -3.820193
Head 6.296597 -16.628267 -6.141203
LeftShoulder -11.270491 15.090243 6.711785
LeftArm 26.021316 42.009323 -71.037265
LeftForeArm -3.042581 -0.000000 12.740211
LeftHand -11.067525 -0.000000 -6.794314
LeftHandThumb1 -26.253704 0.000000 33.147579
RightShoulder -12.740656 35.786063 -50.337613
RightArm 118.887324 52.863324 140.796643
RightForeArm 41.932529 -0.000000 153.646707
RightHand 9.784001 -0.000000 15.436152
RightHandThumb1 -24.326973 -0.000000 -32.862282
LeftUpLeg -4.467273 -10.715189 -0.022600
LeftLeg 0.120048 -0.000000 -0.000000
LeftFoot -12.383549 10.583054 -24.142337
LeftToeBase 8.575810 -0.000000 -0.000000
RightUpLeg 3.201106 -13.808652 -2.755825
RightLeg -4.185554 -0.000000 0.000000
RightFoot -17.534978 -20.746273 11.859624
RightToeBase 5.269024 -0.000000 -0.000000
1504
root -1.562025 31.943164 -5.741109 9.245914 24.436016 5.284551
Spine -7.085498 -5.002711 -3.850119
Head 6.283457 -16.654000 -6.015253
LeftShoulder -11.291954 15.031583 6.768139
LeftArm 26.021740 42.069535 -71.028710
LeftForeArm -2.916339 -0.000000 12.783565
LeftHand -11.403429 -0.000000 -7.144819
LeftHandThumb1 -26.253704 0.000000 33.147579
RightShoulder -12.649220 35.373692 -50.438089
RightArm 119.394603 52.800621 141.662277
RightForeArm 42.221078 -0.000000 152.791667
RightHand 9.725868 -0.000000 15.496685
RightHandThumb1 -24.326973 -0.000000 -32.862282
LeftUpLeg -4.452308 -10.700376 -0.019449
LeftLeg 0.131460 -0.000000 -0.000000
LeftFoot -12.422417 10.591486 -24.140445
LeftToeBase 8.629242 -0.000000 -0.000000
RightUpLeg 3.201916 -13.806919 -2.754181
RightLeg -4.163050 -0.000000 0.000000
RightFoot -17.557310 -20.702585 11.871150
RightToeBase 5.251106 -0.000000 -0.000000
